<?xml version="1.0" encoding="UTF-8" standalone="no"?>
<!-- Created with Inkscape (http://www.inkscape.org/) -->

<svg
   xmlns:dc="http://purl.org/dc/elements/1.1/"
   xmlns:cc="http://creativecommons.org/ns#"
   xmlns:rdf="http://www.w3.org/1999/02/22-rdf-syntax-ns#"
   xmlns:svg="http://www.w3.org/2000/svg"
   xmlns="http://www.w3.org/2000/svg"
   xmlns:sodipodi="http://sodipodi.sourceforge.net/DTD/sodipodi-0.dtd"
   xmlns:inkscape="http://www.inkscape.org/namespaces/inkscape"
   width="210mm"
   height="297mm"
   viewBox="0 0 744.09448819 1052.3622047"
   id="svg2"
   version="1.1"
   inkscape:version="0.91 r13725"
   sodipodi:docname="upvote.svg">
  <defs
     id="defs4">
    <inkscape:path-effect
       effect="envelope"
       id="path-effect4230"
       is_visible="true"
       yy="false"
       xx="false"
       bendpath1="m 291.08884,486.48959 50.01953,0"
       bendpath2="m 341.10837,486.48959 0,28.02736"
       bendpath3="m 291.08884,514.51695 50.01953,0"
       bendpath4="m 291.08884,486.48959 0,28.02736" />
    <inkscape:path-effect
       effect="envelope"
       id="path-effect4219"
       is_visible="true"
       yy="true"
       xx="true"
       bendpath1="M 60.795268,571.26331 C 84.651037,511.79703 175.93358,520.44323 192.53609,573.44082"
       bendpath2="m 192.53609,573.44082 0,179.53627"
       bendpath3="m 57.528996,752.97709 135.007094,0"
       bendpath4="m 57.528996,573.44082 0,179.53627"
       bendpath1-nodetypes="cc" />
    <inkscape:path-effect
       effect="envelope"
       id="path-effect4211"
       is_visible="true"
       yy="false"
       xx="false"
       bendpath1="m 128.4729,552.30304 -20.68639,0"
       bendpath2="m 107.78651,552.30304 c 9.87698,65.82108 7.4992,128.33622 0,188.35504"
       bendpath3="m 128.4729,740.65808 -20.68639,0"
       bendpath4="m 128.4729,552.30304 c -14.65358,62.78501 -8.16899,125.57003 0,188.35504"
       bendpath2-nodetypes="cc"
       bendpath4-nodetypes="cc" />
    <inkscape:path-effect
       effect="envelope"
       id="path-effect4178"
       is_visible="true"
       yy="true"
       xx="false"
       bendpath1="m 113.03906,573.19812 c 70.29267,-52.59678 92.2474,34.0823 119.07058,-17.26882"
       bendpath2="m 230.48051,573.19812 0,28.63281"
       bendpath3="m 113.03906,601.83093 c 68.9073,58.18607 84.4597,-33.07826 118.74476,18.89795"
       bendpath4="m 113.03906,573.19812 0,28.63281"
       bendpath1-nodetypes="cc"
       bendpath3-nodetypes="cc" />
    <inkscape:path-effect
       effect="envelope"
       id="path-effect4163"
       is_visible="true"
       yy="true"
       xx="false"
       bendpath1="m 117.36787,514.12493 294.88787,0"
       bendpath2="m 412.25574,514.12493 0,84.2149"
       bendpath3="m 117.36787,598.33983 294.88787,0"
       bendpath4="m 117.36787,514.12493 0,84.2149" />
  </defs>
  <sodipodi:namedview
     id="base"
     pagecolor="#ffffff"
     bordercolor="#666666"
     borderopacity="1.0"
     inkscape:pageopacity="0.0"
     inkscape:pageshadow="2"
     inkscape:zoom="0.6666102"
     inkscape:cx="33.747915"
     inkscape:cy="253.54381"
     inkscape:document-units="px"
     inkscape:current-layer="layer1"
     showgrid="false"
     inkscape:snap-text-baseline="true"
     inkscape:window-width="1366"
     inkscape:window-height="706"
     inkscape:window-x="-8"
     inkscape:window-y="-8"
     inkscape:window-maximized="1"
     showguides="false" />
  <metadata
     id="metadata7">
    <rdf:RDF>
      <cc:Work
         rdf:about="">
        <dc:format>image/svg+xml</dc:format>
        <dc:type
           rdf:resource="http://purl.org/dc/dcmitype/StillImage" />
      </cc:Work>
    </rdf:RDF>
  </metadata>
  <g
     inkscape:label="Layer 1"
     inkscape:groupmode="layer"
     id="layer1">
    <path
       style="opacity:1;fill:#ff0000"
       d="M 78.191406,771.54492 A 200,200 0 0 0 34.007812,824.36133 200,200 0 0 0 78.28125,876.92969 38,109 0 0 0 83,824.36133 38,109 0 0 0 78.191406,771.54492 Z M 67.5,799.36133 a 6.5,7.5 0 0 1 6.5,7.5 6.5,7.5 0 0 1 -6.5,7.5 6.5,7.5 0 0 1 -6.5,-7.5 6.5,7.5 0 0 1 6.5,-7.5 z"
       id="path4136"
       inkscape:connector-curvature="0"
       inkscape:export-xdpi="90"
       inkscape:export-ydpi="90" />
    <g
       style="font-style:normal;font-weight:normal;font-size:40px;line-height:125%;font-family:Sans;letter-spacing:0px;word-spacing:0px;fill:#ff0000;fill-opacity:1;stroke:none;stroke-width:1px;stroke-linecap:butt;stroke-linejoin:miter;stroke-opacity:1;opacity:1"
       id="text4165"
       transform="matrix(3.0691161,0,0,3.0691161,-272.37145,-986.78898)"
       inkscape:export-xdpi="90"
       inkscape:export-ydpi="90">
      <path
         style="font-style:normal;font-variant:normal;font-weight:600;font-stretch:normal;font-size:40px;line-height:125%;font-family:'Bookman Old Style';-inkscape-font-specification:'Bookman Old Style, Semi-Bold';text-align:start;writing-mode:lr-tb;text-anchor:start;fill:#ff0000"
         d="m 113.35995,573.63086 c 3.92908,-2.88442 8.01422,-5.58435 12.27093,-7.96097 1.25922,2.04316 2.34558,4.0806 3.25911,6.11233 -0.12537,0.054 -0.25063,0.10819 -0.37577,0.16263 -0.74939,0.326 -1.20732,0.59654 -1.36973,0.78986 -0.15251,0.19017 -0.21994,0.47418 -0.20912,0.84992 0.0108,0.37546 0.0931,0.72567 0.24368,1.05662 0.20644,0.45361 0.6768,1.14338 1.42626,2.37684 3.88434,6.38068 5.16949,13.61418 4.50512,21.66914 3.56817,-7.3408 4.67046,-15.67673 4.16577,-24.92925 -0.081,-1.36472 -0.21364,-2.32606 -0.34775,-2.81779 -0.19068,-0.69915 -0.45681,-1.17424 -0.78807,-1.41895 -0.3193,-0.24908 -0.85766,-0.24242 -1.60658,0.0272 -0.2636,0.0949 -0.5267,0.191 -0.78932,0.28823 -0.80178,-2.28856 -1.75726,-4.58227 -2.86644,-6.88112 2.15911,-1.02731 4.3611,-1.96316 6.60778,-2.79113 0.0535,-0.0197 0.10699,-0.0394 0.16052,-0.0589 1.42753,-0.52267 2.87346,-0.99848 4.33396,-1.42264 0.72219,2.70001 1.34122,5.39699 1.85709,8.09092 -0.84732,0.19734 -1.37074,0.55275 -1.57111,1.03356 -0.31341,0.75938 -0.40023,2.3538 -0.39618,4.85083 0.006,1.67249 -0.0219,3.32371 -0.0892,4.95403 -0.0115,0.26998 -0.0241,0.53934 -0.0378,0.80809 -0.66158,12.66079 -3.81318,23.80302 -11.62201,33.18259 -1.97584,-1.09524 -3.90974,-2.26767 -5.80565,-3.50152 4.59726,-12.21857 4.49251,-22.031 -2.57801,-29.29512 -0.83931,-0.85485 -1.53096,-1.37362 -1.86233,-1.55059 -0.34786,-0.18578 -0.72837,-0.27155 -1.13643,-0.25656 -0.39779,0.009 -0.86886,0.1763 -1.41425,0.49664 -1.11542,-1.28222 -2.43687,-2.57049 -3.96435,-3.86483 0,0 -5e-5,-4e-5 -5e-5,-4e-5 z"
         id="path4170" />
      <path
         style="font-style:normal;font-variant:normal;font-weight:600;font-stretch:normal;font-size:40px;line-height:125%;font-family:'Bookman Old Style';-inkscape-font-specification:'Bookman Old Style, Semi-Bold';text-align:start;writing-mode:lr-tb;text-anchor:start;fill:#ff0000"
         d="m 159.94528,555.28705 c 5.14352,0.21318 8.42457,4.14154 9.8856,10.48115 0.20979,0.90285 0.38112,1.82744 0.51995,2.77292 0,0 0,0 0,0 0.24365,1.64021 0.39135,3.34137 0.4744,5.10127 0.20521,4.2813 0.0343,9.15035 -0.10547,14.33669 -0.13771,5.11035 -0.23514,10.08291 -0.61683,14.37914 0,0 0,1e-5 0,1e-5 -0.0412,0.46792 -0.0861,0.93234 -0.13521,1.3931 -0.142,1.33249 -0.31292,2.60243 -0.52746,3.81304 0,0 0,0 0,0 -0.55611,3.17086 -1.4148,5.89933 -2.76274,8.14568 -1.84273,3.05439 -4.60214,4.8935 -8.04557,4.99217 -0.73306,0.021 -1.44477,-0.0459 -2.12799,-0.19795 -0.20131,-0.0449 -0.4001,-0.0972 -0.5962,-0.15676 -3.27445,-0.99087 -5.60095,-3.88099 -7.02054,-8.18973 -2.14587,-6.49731 -2.08022,-14.68103 -1.97781,-24.15359 0.0954,-8.82269 0.21568,-16.58412 2.14946,-22.86296 1.56538,-5.05111 4.13969,-8.38169 7.8508,-9.48648 0.20314,-0.0605 0.40887,-0.11378 0.61702,-0.15983 0.77749,-0.17203 1.58707,-0.24234 2.41859,-0.20787 z m -0.36627,10.06548 c -0.7642,-0.0282 -1.47541,0.224 -2.11302,0.7496 0,0 0,0 0,0 -0.17713,0.14515 -0.34863,0.31128 -0.51427,0.49824 -0.80886,0.9151 -1.4716,2.3066 -1.99864,4.17405 -1.2793,4.55278 -1.70146,10.43628 -1.80274,17.46367 -0.10158,7.04863 0.1167,12.71341 1.16564,16.94061 0.49599,1.97533 1.14877,3.42266 1.96943,4.33518 0.15738,0.17694 0.32065,0.33335 0.48958,0.46909 0,0 0,0 0,0 0.56126,0.44889 1.186,0.66827 1.85937,0.65231 1.96696,-0.0466 3.42249,-1.99294 4.3413,-5.60785 1.08119,-4.31248 1.37641,-9.9185 1.51061,-16.81796 0.0946,-4.86541 0.1149,-8.9833 -0.16419,-12.36662 -0.26949,-3.40298 -0.76576,-5.96647 -1.62637,-7.75087 -0.85216,-1.76685 -1.91401,-2.69515 -3.1167,-2.73945 z"
         id="path4172" />
      <path
         style="font-style:normal;font-variant:normal;font-weight:600;font-stretch:normal;font-size:40px;line-height:125%;font-family:'Bookman Old Style';-inkscape-font-specification:'Bookman Old Style, Semi-Bold';text-align:start;writing-mode:lr-tb;text-anchor:start;fill:#ff0000"
         d="m 181.81802,559.50971 c 0.91855,0.39232 1.83029,0.79934 2.73592,1.21813 -0.19315,0.62004 -0.3794,1.2371 -0.5586,1.85122 0.80601,0.35675 1.60872,0.72225 2.40864,1.09449 0.71516,0.33284 1.42824,0.67091 2.13962,1.01278 3.30707,1.58993 6.58319,3.28382 9.96106,4.80282 0,0 0,0 0,0 0.43324,0.19439 0.86843,0.38601 1.30582,0.57428 0.37547,-0.34405 0.75577,-0.68437 1.14056,-1.02131 0.238,0.11207 0.47624,0.22286 0.71476,0.33227 0.65187,0.29734 1.30705,0.58604 1.96508,0.85875 -1.29409,4.33831 -1.14634,8.17842 0.05,11.94644 -2.11798,0.31973 -4.06636,0.62754 -5.90983,0.98447 -0.63083,-1.71013 -1.00956,-3.37055 -1.1825,-3.958 -0.0198,-0.0654 -0.0389,-0.12596 -0.0575,-0.18168 -0.40982,-1.23831 -0.88873,-2.34025 -1.49262,-3.28622 -0.0492,-0.0777 -0.0993,-0.15432 -0.15033,-0.22998 -0.51115,-0.76797 -1.10115,-1.28706 -1.82593,-1.51472 -0.33976,-0.10672 -0.62449,-0.0696 -0.85645,0.11676 -0.22012,0.1652 -0.51592,0.63968 -0.84042,1.41102 -3.17877,7.55591 -3.7684,15.08573 -1.76889,22.58946 0.34954,1.31174 0.6915,2.16793 0.86717,2.46467 0.186,0.31418 0.40365,0.54609 0.64825,0.69491 0.23818,0.13054 0.52024,0.1827 0.84764,0.15887 0.31706,-0.0416 1.00537,-0.24231 2.21307,-0.59611 0,0 0,0 0,0 0.0843,-0.0258 0.17144,-0.0523 0.26087,-0.0795 0.6368,1.66751 1.4129,3.33501 2.3283,5.0025 -0.0815,0.0348 -0.16278,0.0698 -0.24393,0.10488 0,0 0,0 0,0 -3.4335,1.47316 -6.68268,3.18957 -9.90312,4.8624 -0.69325,0.35977 -1.38574,0.7171 -2.07899,1.06908 0,0 0,0 0,0 -0.41873,0.21225 -0.83799,0.42302 -1.25789,0.63188 -0.97658,-2.24831 -1.80638,-4.50042 -2.4894,-6.75633 0.25628,-0.0969 0.51295,-0.1943 0.77002,-0.29221 0.15767,-0.06 0.3041,-0.11946 0.43903,-0.178 0,0 0,0 0,0 0.592,-0.25867 0.96561,-0.50242 1.11358,-0.72147 0.17541,-0.29257 0.25117,-0.69202 0.23628,-1.19946 -0.0226,-0.55291 -0.25708,-1.51133 -0.62042,-3.02292 -2.15791,-8.97743 -1.55481,-18.01984 1.8093,-27.12721 0.28831,-0.78053 0.43374,-1.27976 0.41027,-1.51886 -0.0231,-0.23526 -0.20175,-0.41204 -0.53688,-0.52704 -0.36634,-0.12571 -0.80829,-0.12698 -1.31879,0.007 -0.42301,0.1104 -0.8943,0.314 -1.40467,0.61718 -1.12732,0.66968 -2.25819,1.79867 -3.30505,3.40736 -0.36098,0.54941 -1.47723,2.53232 -2.66852,5.61179 -0.96119,-0.95507 -1.89389,-1.947 -2.82332,-2.97918 1.99389,-6.40914 4.88667,-12.47058 8.92878,-18.23537 0,0 -3e-5,-3e-5 -3e-5,-3e-5 z"
         id="path4174" />
      <path
         style="font-style:normal;font-variant:normal;font-weight:600;font-stretch:normal;font-size:40px;line-height:125%;font-family:'Bookman Old Style';-inkscape-font-specification:'Bookman Old Style, Semi-Bold';text-align:start;writing-mode:lr-tb;text-anchor:start;fill:#ff0000"
         d="m 208.56137,572.92037 c 0.39005,0.0697 0.78215,0.12998 1.17623,0.17986 0.77499,0.099 1.55667,0.15877 2.34443,0.17126 1.15043,0.0166 2.30405,-0.0799 3.43294,-0.29566 0,0 0,0 0,0 0.64133,-0.12231 1.27384,-0.28365 1.89243,-0.48522 0,0 0,0 0,0 1.4445,-0.47224 2.79885,-1.15291 4.04593,-1.97298 0,0 0,0 0,0 0.38381,-0.2532 0.75766,-0.51987 1.12105,-0.79797 0,0 0,0 0,0 3.08899,-2.36735 5.50569,-5.39079 7.56158,-8.62982 5.22317,4.41919 9.14916,9.41488 11.60857,15.13917 -0.48846,1.3824 -1.09952,2.66396 -1.85553,3.85171 -1.10039,-2.48251 -2.50422,-4.24488 -3.8621,-5.31886 -1.36099,-1.09207 -2.66908,-1.48831 -3.81317,-1.34137 -1.16358,0.1206 -2.35452,0.59049 -3.73871,1.3111 -0.55651,0.28972 -1.13332,0.57035 -1.73152,0.84072 -0.46776,0.21083 -0.95253,0.41098 -1.45393,0.59883 -0.60562,0.21915 -1.23853,0.42446 -1.89793,0.61349 1.39901,2.82187 2.2637,5.64189 2.59405,8.46003 0.78031,-0.0694 1.52585,-0.14546 2.23593,-0.22737 0.0216,-0.003 0.0431,-0.005 0.0645,-0.008 0.70412,-0.0913 1.27342,-0.2013 1.72069,-0.3202 0.49535,-0.12879 0.84809,-0.26798 1.07054,-0.41586 0.43455,-0.30076 0.70282,-0.6985 0.8023,-1.18838 0.0931,-0.49501 -0.008,-1.46692 -0.46025,-2.8247 -0.16547,-0.49704 -0.34757,-0.99367 -0.54631,-1.48988 1.33565,-0.48596 2.55974,-1.00068 3.68375,-1.5348 2.54649,6.24177 2.76536,12.57164 0.6566,18.98962 -1.19183,-0.26444 -2.4846,-0.50821 -3.88805,-0.72738 0.19432,-0.57231 0.36733,-1.14409 0.51901,-1.71532 0.30715,-1.15674 0.32958,-2.0219 0.16672,-2.54664 -0.14843,-0.53094 -0.43492,-0.88237 -0.84107,-1.05906 -0.20662,-0.0899 -0.55178,-0.15249 -1.04965,-0.18688 -0.45412,-0.0225 -1.02106,-0.0255 -1.7485,-0.0184 0,0 0,0 0,0 -0.0917,1.1e-4 -0.18593,4.4e-4 -0.28264,10e-4 -0.65492,0.004 -1.33895,0.006 -2.05157,0.007 -0.24686,2.58948 -0.94553,5.17738 -2.096,7.76371 -0.36943,0.8305 -0.5794,1.32813 -0.57538,1.53351 0.004,0.19874 0.11057,0.37668 0.31585,0.53675 0.18785,0.13802 0.60057,0.29272 1.21398,0.47675 0,0 0,0 0,0 0.11768,0.0353 0.24286,0.0714 0.37526,0.10838 0.38618,0.10774 0.76324,0.21648 1.13126,0.32616 0.5517,0.17598 1.08797,0.35922 1.6094,0.54918 1.93287,0.70412 3.55822,1.02448 5.13904,0.71698 1.56163,-0.3236 3.21039,-1.29456 4.73996,-3.0555 1.54333,-1.77412 2.82333,-4.20152 3.58007,-7.19219 0.81824,0.92581 1.50863,1.96069 2.09042,3.11283 -2.06703,7.47452 -6.29727,14.16855 -12.47639,20.20654 -2.53579,-3.13311 -5.45886,-6.0523 -9.03502,-8.32991 -0.39126,-0.24583 -0.79123,-0.48493 -1.20022,-0.7168 -1.33403,-0.75414 -2.77524,-1.40938 -4.30917,-1.91767 0,0 -1e-5,0 -1e-5,0 -0.65784,-0.21898 -1.32906,-0.41314 -2.01238,-0.57846 0,0 0,0 0,0 -1.20414,-0.28906 -2.43552,-0.48107 -3.67306,-0.57791 -0.84475,-0.0697 -1.68958,-0.0907 -2.52797,-0.0634 -0.42549,0.0154 -0.84775,0.042 -1.26672,0.0788 -0.27665,-1.39961 -0.50546,-2.79724 -0.68641,-4.19288 0.35418,-0.0152 0.71219,-0.0271 1.07402,-0.0353 0.18199,-0.004 0.35717,-0.008 0.52571,-0.0128 0,0 0,0 0,0 1.19628,-0.0179 2.00264,-0.0375 2.47897,-0.137 0.33513,-0.07 0.61717,-0.1823 0.84574,-0.34032 0.13442,-0.0931 0.2505,-0.20163 0.34752,-0.32573 0.13324,-0.20083 0.25877,-0.80539 0.34982,-1.79277 0.4961,-5.37989 0.71029,-10.77363 0.64257,-16.18123 -0.011,-0.87924 -0.13087,-1.46478 -0.32965,-1.7374 -0.0499,-0.0766 -0.10774,-0.14808 -0.17342,-0.21436 0,0 0,0 0,0 -0.16784,-0.17383 -0.38727,-0.31321 -0.65682,-0.41951 -0.37528,-0.16242 -1.10248,-0.27182 -2.17724,-0.36122 -0.1026,-0.009 -0.20501,-0.0173 -0.30724,-0.0262 -0.51894,-0.0402 -1.03043,-0.088 -1.53439,-0.14236 0.31937,-1.37486 0.6866,-2.74773 1.10167,-4.11862 0,0 -1.1e-4,-2e-5 -1.1e-4,-2e-5 z"
         id="path4176" />
    </g>
    <g
       style="font-style:normal;font-weight:normal;font-size:40px;line-height:125%;font-family:Sans;letter-spacing:0px;word-spacing:0px;fill:#000000;fill-opacity:1;stroke:none;stroke-width:1px;stroke-linecap:butt;stroke-linejoin:miter;stroke-opacity:1"
       id="text4221"
       transform="matrix(1.1523665,0,0,3.2885197,-238.5532,-1064.2412)"
       inkscape:export-xdpi="90"
       inkscape:export-ydpi="90" />
    <text
       xml:space="preserve"
       style="font-style:normal;font-variant:normal;font-weight:bold;font-stretch:normal;font-size:262.65570068px;line-height:125%;font-family:sans-serif;-inkscape-font-specification:'sans-serif, Bold';text-align:start;letter-spacing:0px;word-spacing:0px;writing-mode:lr-tb;text-anchor:start;fill:#00ffff;fill-opacity:1;stroke:none;stroke-width:1px;stroke-linecap:butt;stroke-linejoin:miter;stroke-opacity:1"
       x="56.898037"
       y="741.41211"
       id="text3394"
       sodipodi:linespacing="125%"
       transform="scale(0.98770407,1.012449)"
       inkscape:export-xdpi="90"
       inkscape:export-ydpi="90"><tspan
         sodipodi:role="line"
         id="tspan3396"
         x="56.898037"
         y="741.41211">?</tspan></text>
    <text
       xml:space="preserve"
       style="font-style:normal;font-variant:normal;font-weight:normal;font-stretch:normal;font-size:20.12303925px;line-height:125%;font-family:Aparajita;-inkscape-font-specification:'Aparajita, Normal';text-align:start;letter-spacing:0px;word-spacing:0px;writing-mode:lr-tb;text-anchor:start;fill:#000000;fill-opacity:1;stroke:none;stroke-width:1px;stroke-linecap:butt;stroke-linejoin:miter;stroke-opacity:1"
       x="423.53909"
       y="738.42603"
       id="text4242"
       sodipodi:linespacing="125%"
       transform="scale(0.89732881,1.1144187)"
       inkscape:export-xdpi="90"
       inkscape:export-ydpi="90"><tspan
         sodipodi:role="line"
         id="tspan4244"
         x="423.53909"
         y="738.42603">@alanzheng</tspan></text>
  </g>
  <g
     inkscape:groupmode="layer"
     id="layer2"
     inkscape:label="Layer 2"
     style="display:none">
    <path
       style="opacity:1;fill:#00ffff"
       d="m 126.73438,527.50977 c -10.23015,-0.18127 -20.04374,2.51668 -29.199224,7.54882 l 7.882814,-0.89062 0,41.36328 c 0,3.63963 0.17247,6.52896 0.51758,8.66992 0.36011,2.14096 0.90086,3.81081 1.62109,5.00977 0.73524,1.15611 1.5911,1.73437 2.56641,1.73437 1.20038,0 2.55678,-0.92051 4.07226,-2.76172 1.5305,-1.84124 3.05483,-4.58106 4.57031,-8.2207 l 0,-29.93164 c 0,-3.16862 -0.083,-5.24367 -0.24804,-6.22852 -0.16505,-0.98484 -0.45682,-1.77748 -0.87696,-2.37695 -0.42014,-0.59946 -1.08213,-0.90039 -1.98242,-0.90039 l -1.64258,0 0,-5.39453 8.53126,-0.96289 0,47.91406 c 0,3.08299 0.0894,5.2249 0.26953,6.42383 0.18006,1.15614 0.442,1.99007 0.78711,2.50391 0.36011,0.47101 1.07333,0.70703 2.13867,0.70703 l 0.69726,0 0,5.39453 -7.47265,1.09179 0,-11.88085 c -2.05565,4.66729 -3.84841,7.89887 -5.37891,9.69726 -1.53048,1.75558 -3.0827,2.63281 -4.6582,2.63281 -1.17038,0 -2.19027,-0.44844 -3.06055,-1.34765 -0.85527,-0.89918 -1.61323,-2.24845 -2.27344,-4.04688 -0.64519,-1.79839 -1.14121,-3.95999 -1.48632,-6.48633 -0.34512,-2.52634 -0.51758,-5.22487 -0.51758,-8.09375 l 0,-29.22461 c 0,-2.61197 -0.083,-4.43132 -0.24805,-5.45898 -0.16505,-1.07051 -0.44191,-1.90444 -0.83203,-2.50391 -0.37512,-0.64228 -0.892526,-0.96484 -1.552736,-0.96484 l -2.070312,0 0,-5.11133 c -2.578081,1.45302 -5.10439,3.0819 -7.570313,4.89649 -18.890296,13.90777 -15.296636,17.6499 -30.445312,29.66797 8.829395,0.89163 16.806936,3.99911 23.921875,9.46093 7.013262,5.38377 12.550293,12.57854 16.935547,20.63672 6.507071,11.50962 11.242931,25.1786 14.503911,37.43555 3.32773,12.50796 5.55719,25.14833 6.74609,37.17773 1.18404,11.98012 1.44627,24.46795 0.56055,36.69336 -0.86109,11.88532 -2.9425,25.77033 -8.10743,38.88281 4.45032,-0.22932 8.81866,-0.4569 13.20313,-0.6914 1.70185,-0.0894 3.39144,-0.17883 5.08398,-0.26953 -3.78054,-13.38389 -5.05118,-27.6108 -5.29882,-39.69531 -0.25633,-12.50827 0.54364,-25.13087 2.28906,-37.41407 1.73963,-12.24236 4.57963,-25.24144 8.60351,-37.91406 0.88778,-2.79592 1.86895,-5.65262 2.92383,-8.52344 l -11.0293,0 0,-5.39453 1.01172,0 c 1.03533,0 1.70381,-0.23598 2.00391,-0.70703 0.3151,-0.4282 0.54721,-1.11266 0.69727,-2.05469 0.09,-0.72791 0.13476,-2.95442 0.13476,-6.67968 l 0,-66.60547 -3.84766,0 0,-5.26758 c 1.12536,0 2.12192,-0.40715 2.99219,-1.22071 0.87028,-0.81357 1.82405,-2.22577 2.85938,-4.23828 l 1.77734,0 0,10.72657 c 1.87559,-4.2391 3.43625,-7.08711 4.68164,-8.54297 1.2454,-1.45586 2.49093,-2.1836 3.73633,-2.1836 2.56583,0 4.74826,2.8677 6.54883,8.60547 1.81558,5.73778 2.72461,13.20987 2.72461,22.41602 0,10.19096 -1.02834,18.54224 -3.08399,25.05078 -1.8756,5.99471 -4.2921,8.99023 -7.24804,8.99023 -1.47047,0 -2.85022,-0.79069 -4.14063,-2.375 -0.93029,-1.11329 -2.00336,-3.10573 -3.21875,-5.97461 l 0,21.13282 c 0,3.16862 0.0298,5.03124 0.0898,5.58789 0.075,0.81354 0.22613,1.49804 0.45118,2.05468 0.22507,0.55666 0.51035,0.9205 0.85547,1.0918 0.25507,0.12856 1.10898,0.19336 2.56445,0.19336 l 0,3.87695 c 3.57875,-9.4829 8.09005,-19.07848 13.70508,-27.34961 4.93751,-7.34982 10.94611,-13.97447 18.08984,-18.64843 6.15586,-4.05303 12.87516,-6.33214 19.94922,-6.89844 -3.61966,-3.16707 -7.28292,-7.90653 -11.33399,-12.71094 -4.15065,-4.92225 -8.57772,-9.80084 -13.89062,-14.36523 -11.03734,-9.48197 -23.72239,-15.706 -37.90234,-16.64453 -0.89687,-0.0596 -1.79088,-0.0975 -2.68164,-0.11328 z m 17.48632,13.91601 c -1.05033,0 -2.19148,0.79264 -3.42187,2.37695 -1.23039,1.58431 -2.5505,3.96029 -3.96094,7.12891 l 0,22.09375 c 0,2.91172 0.0597,5.07524 0.17969,6.48828 0.18006,2.18378 0.52695,4.15262 1.03711,5.90821 0.52517,1.75557 1.22995,3.25431 2.11523,4.49609 0.90029,1.24178 1.8372,1.86328 2.8125,1.86328 1.95063,0 3.63899,-2.09861 5.06446,-6.29492 1.44046,-4.19628 2.16015,-10.55513 2.16015,-19.07617 0,-7.96437 -0.59196,-14.10883 -1.77734,-18.4336 -1.18538,-4.36755 -2.58847,-6.55078 -4.20899,-6.55078 z"
       id="rect4213"
       inkscape:connector-curvature="0"
       inkscape:export-xdpi="90"
       inkscape:export-ydpi="90" />
  </g>
</svg>
